<svg width="25" height="25" viewBox="0 0 25 25" fill="none" xmlns="http://www.w3.org/2000/svg">
<g clip-path="url(#clip0_138_195)">
<path d="M9.46785 4.85241C9.04434 3.88192 8.69985 2.86823 8.44303 1.83721C8.12446 0.558054 6.81442 -0.238354 5.52788 0.0641681C4.97843 0.191343 4.4302 0.32346 3.88199 0.458039C2.46822 0.803759 1.27053 1.73843 0.591485 3.02253C-0.0938004 4.31899 -0.187627 5.85362 0.330957 7.23413C3.21898 14.9153 9.28002 20.9776 16.9616 23.8645C17.5493 24.0855 18.1654 24.1954 18.7791 24.1954C19.6051 24.1954 20.4287 23.9966 21.1732 23.604C22.4574 22.9261 23.392 21.7272 23.7378 20.3135C23.8723 19.7653 24.0032 19.2171 24.1316 18.6677C24.4329 17.3786 23.6377 16.0711 22.3586 15.7525C21.335 15.497 20.325 15.1549 19.3581 14.7339C18.4148 14.324 17.3035 14.5413 16.5947 15.2772C15.8489 16.0514 14.5018 16.1822 13.6487 15.5636C11.7163 14.1573 10.0247 12.4644 8.61968 10.5297C8.00849 9.68636 8.13814 8.35163 8.92961 7.58849C9.65809 6.88593 9.8754 5.78579 9.46672 4.84986L9.46785 4.85241Z" fill="black"/>
</g>
<defs>
<clipPath id="clip0_138_195">
<rect width="24.1954" height="24.1954" fill="white"/>
</clipPath>
</defs>
</svg>
