<svg width="390" height="71" viewBox="0 0 390 71" fill="none" xmlns="http://www.w3.org/2000/svg">
<g clip-path="url(#clip0_138_113)">
<path d="M211.882 6.17285H197.922L189.672 65.7333H200.587L202.439 49.7415H207.374L209.232 65.7333H220.146L211.882 6.17285ZM206.463 41.4906H203.379V41.4674L204.881 23.6884L206.456 41.4674V41.4906H206.463Z" fill="white"/>
<path d="M313.867 4.43848L367.616 35.5032L313.867 66.5616L311.911 65.4341L363.698 35.5053L311.911 5.5681L313.867 4.44058V4.43848Z" fill="white"/>
<path d="M326.61 1.13595L328.567 0L390 35.5032L328.567 71L326.61 69.8725L386.08 35.5053L326.61 1.13595Z" fill="white"/>
<path d="M76.1313 4.43848L22.3816 35.5032L76.1313 66.5616L78.0871 65.4341L26.2994 35.5053L78.0871 5.5681L76.1313 4.44058V4.43848Z" fill="white"/>
<path d="M63.3883 1.13595L61.424 0L0 35.5032L61.4262 71L63.3904 69.8725L3.91996 35.5032L63.3883 1.13595Z" fill="white"/>
<path d="M305.723 13.9369H299.571V65.7248H288.544V13.9369H282.386V6.17285H305.723V13.9369Z" fill="white"/>
<path d="M279.517 13.8547H269.895V29.9287H278.502V37.147H269.895V65.7227H258.883V6.17285H279.517V13.8547Z" fill="white"/>
<path d="M255.921 6.17285H244.902V65.7333H255.921V6.17285Z" fill="white"/>
<path d="M221.998 65.7248V6.17285H233.017V58.0872H242.677V65.7248" fill="white"/>
<path d="M189.426 46.7804V54.3801C189.426 54.7321 189.419 55.0819 189.396 55.4339C189.381 55.7711 189.352 56.1062 189.313 56.4434C189.275 56.7637 189.239 57.0777 189.186 57.4002C189.133 57.7058 189.073 58.0051 188.999 58.3043C188.931 58.5952 188.85 58.8797 188.761 59.1642C188.672 59.4403 188.583 59.71 188.47 59.9714C188.366 60.2327 188.254 60.4877 188.126 60.7343C188.007 60.9724 187.871 61.2127 187.731 61.4445C187.589 61.6679 187.44 61.8934 187.283 62.1105C187.126 62.3191 186.954 62.5299 186.782 62.7238C186.61 62.9177 186.423 63.1052 186.23 63.2928C186.037 63.4719 185.835 63.6448 185.625 63.8091C185.408 63.9735 185.192 64.1316 184.969 64.2728C184.737 64.4224 184.499 64.5636 184.253 64.6922C184.007 64.8271 183.746 64.9472 183.491 65.0589C183.221 65.179 182.945 65.2823 182.669 65.3813C182.386 65.4783 182.093 65.5689 181.796 65.6511C181.49 65.7333 181.185 65.8071 180.87 65.8745C180.55 65.9419 180.221 65.9946 179.891 66.0473C179.547 66.1 179.206 66.1379 178.861 66.1738C178.503 66.2117 178.137 66.2328 177.779 66.2475C177.398 66.2623 177.025 66.2707 176.645 66.2707C176.25 66.2707 175.846 66.2707 175.443 66.2412C175.063 66.2265 174.68 66.197 174.3 66.159C173.935 66.1211 173.576 66.0768 173.217 66.0241C172.873 65.9715 172.538 65.904 172.202 65.8366C171.882 65.7628 171.567 65.6869 171.247 65.59C170.941 65.4994 170.641 65.4024 170.351 65.2907C170.066 65.1853 169.79 65.0673 169.514 64.9388C169.253 64.8123 168.992 64.6774 168.745 64.5341C168.499 64.3929 168.267 64.2433 168.036 64.0789C167.813 63.9145 167.596 63.7501 167.386 63.5626C167.184 63.3834 166.991 63.1959 166.804 62.9935C166.617 62.7996 166.445 62.591 166.282 62.3739C166.118 62.1569 165.961 61.9335 165.819 61.7016C165.677 61.4614 165.543 61.2232 165.424 60.9703C165.297 60.7153 165.184 60.454 165.08 60.1863C164.976 59.9102 164.887 59.6342 164.804 59.3496C164.721 59.0588 164.647 58.7595 164.587 58.4603C164.528 58.1463 164.475 57.8322 164.439 57.5182C164.394 57.181 164.364 56.8522 164.341 56.5171C164.32 56.1652 164.311 55.8153 164.311 55.4634V41.8847H174.277V55.5372C174.277 55.8364 174.307 56.142 174.404 56.4265C174.487 56.6668 174.621 56.8902 174.793 57.0609C174.971 57.24 175.203 57.3602 175.443 57.4423C175.742 57.5393 176.048 57.5688 176.36 57.5688C176.672 57.5688 176.957 57.5393 177.241 57.4423C177.473 57.3602 177.696 57.24 177.868 57.0609C178.04 56.8881 178.167 56.6647 178.248 56.4328C178.345 56.1483 178.375 55.8427 178.375 55.5519V48.4981C178.375 48.2515 178.36 48.0049 178.331 47.7668C178.301 47.5117 178.256 47.2588 178.197 47.0038C178.137 46.7341 178.063 46.4727 177.974 46.2114C177.885 45.9353 177.781 45.6656 177.66 45.3979C177.541 45.1134 177.398 44.831 177.256 44.5528C177.099 44.2535 176.935 43.969 176.763 43.6782C176.577 43.3726 176.383 43.0733 176.182 42.7825C175.965 42.4685 175.742 42.1629 175.511 41.8552C175.264 41.5264 175.009 41.2124 174.748 40.8984C174.449 40.5464 174.143 40.1966 173.837 39.8446C173.546 39.5074 173.255 39.1723 172.971 38.8351C172.701 38.5127 172.425 38.1923 172.158 37.872C171.896 37.5664 171.642 37.2671 171.389 36.9594C171.149 36.6686 170.903 36.3841 170.665 36.0932C170.442 35.8172 170.217 35.5474 169.994 35.2713C169.786 35.01 169.575 34.755 169.367 34.4936C169.174 34.2555 168.979 34.0089 168.786 33.7687C168.607 33.5453 168.427 33.3198 168.248 33.0879C168.085 32.8793 167.919 32.6685 167.762 32.4599C167.613 32.266 167.471 32.0721 167.322 31.8761C167.189 31.697 167.061 31.5178 166.934 31.3387C166.815 31.1743 166.702 31.0099 166.59 30.8455C166.492 30.7043 166.388 30.5547 166.29 30.4051C166.201 30.2786 166.118 30.1437 166.036 30.0089C165.878 29.7475 165.721 29.4778 165.581 29.2017C165.447 28.9319 165.312 28.6558 165.201 28.3713C165.082 28.0952 164.978 27.8107 164.887 27.5199C164.798 27.229 164.715 26.9361 164.64 26.6453C164.573 26.346 164.513 26.0467 164.468 25.7496C164.424 25.444 164.386 25.1447 164.364 24.837C164.341 24.523 164.326 24.209 164.326 23.895V17.2057C164.326 16.8474 164.335 16.4892 164.356 16.1288C164.371 15.7852 164.401 15.448 164.439 15.1045C164.477 14.7757 164.528 14.4554 164.581 14.133C164.64 13.8274 164.708 13.5197 164.783 13.2141C164.857 12.9232 164.946 12.6303 165.044 12.3479C165.142 12.0718 165.246 11.802 165.365 11.5323C165.477 11.271 165.602 11.0159 165.738 10.7694C165.872 10.5312 166.014 10.291 166.172 10.0591C166.32 9.83573 166.492 9.61023 166.664 9.40159C166.836 9.19294 167.015 8.99062 167.21 8.79673C167.403 8.60284 167.605 8.4237 167.815 8.24456C168.023 8.07175 168.248 7.90104 168.48 7.74297C168.711 7.58702 168.958 7.43739 169.204 7.29407C169.457 7.15287 169.72 7.01799 169.981 6.89786C170.257 6.77141 170.533 6.65971 170.818 6.55434C171.117 6.44896 171.408 6.35202 171.714 6.2635C172.028 6.17288 172.349 6.09911 172.669 6.02535C173.005 5.95159 173.34 5.8989 173.678 5.84621C174.028 5.79353 174.387 5.74927 174.746 5.71133C175.12 5.6734 175.5 5.65232 175.874 5.62914C176.269 5.61439 176.666 5.60596 177.054 5.60596C177.443 5.60596 177.838 5.61439 178.227 5.63546C178.592 5.65021 178.966 5.67972 179.331 5.71766C179.681 5.75559 180.025 5.80828 180.376 5.85886C180.705 5.91787 181.032 5.98531 181.354 6.06118C181.66 6.13494 181.966 6.22557 182.272 6.32251C182.563 6.41946 182.847 6.52483 183.123 6.64285C183.391 6.76298 183.654 6.881 183.915 7.02431C184.162 7.15919 184.408 7.30883 184.639 7.46478C184.871 7.62074 185.088 7.78513 185.304 7.96637C185.514 8.13919 185.714 8.32465 185.901 8.51854C186.088 8.71243 186.275 8.91475 186.438 9.13183C186.61 9.3489 186.767 9.5723 186.916 9.80412C187.065 10.0423 187.2 10.2825 187.326 10.5354C187.453 10.7904 187.572 11.0581 187.67 11.3279C187.782 11.6039 187.871 11.8885 187.954 12.173C188.043 12.4722 188.111 12.7715 188.177 13.0771C188.245 13.3974 188.296 13.7199 188.334 14.0402C188.379 14.3774 188.409 14.721 188.432 15.0645C188.455 15.4228 188.455 15.7895 188.462 16.1477V26.445H178.496V15.4818C178.475 15.1382 178.458 14.7947 178.309 14.487C178.19 14.2404 177.989 14.0234 177.749 13.8969C177.464 13.741 177.137 13.6883 176.817 13.6946C176.57 13.6946 176.324 13.7388 176.107 13.8295C175.899 13.9201 175.712 14.0676 175.555 14.2489C175.383 14.4512 175.256 14.6893 175.16 14.9359C175.041 15.2499 174.973 15.5703 174.922 15.899C174.854 16.31 174.818 16.7294 174.84 17.1404L175.05 21.0034L175.094 21.7579C175.109 22.0193 175.169 22.2806 175.228 22.5356C175.296 22.8054 175.37 23.073 175.46 23.3428C175.549 23.6273 175.661 23.9034 175.78 24.1731C175.908 24.464 176.05 24.7485 176.19 25.033C176.347 25.3323 176.519 25.6315 176.698 25.9224C176.885 26.2364 177.086 26.5357 177.294 26.8349C177.517 27.1553 177.742 27.463 177.98 27.777C178.233 28.1058 178.496 28.4261 178.764 28.7401C179.055 29.0837 179.361 29.4209 179.66 29.7644C179.951 30.0932 180.235 30.4135 180.511 30.7507C180.781 31.0647 181.049 31.3787 181.318 31.6928C181.571 31.992 181.826 32.2913 182.081 32.5884C182.321 32.873 182.567 33.1638 182.805 33.4483C183.028 33.7181 183.253 33.9942 183.476 34.2639C183.684 34.5189 183.894 34.7803 184.102 35.0332C184.295 35.2713 184.491 35.5179 184.693 35.7645C184.871 35.9963 185.058 36.2197 185.23 36.4515C185.393 36.6686 185.565 36.8772 185.731 37.0943C185.88 37.2966 186.03 37.4968 186.179 37.6992C186.313 37.8867 186.455 38.0722 186.582 38.2661C186.701 38.4389 186.829 38.6096 186.948 38.7887C187.052 38.9468 187.156 39.1112 187.262 39.2672C187.351 39.4084 187.449 39.558 187.538 39.7013C187.716 40.0006 187.882 40.2998 188.039 40.6054C188.188 40.911 188.33 41.225 188.458 41.5475C188.585 41.8678 188.695 42.1903 188.802 42.5275C188.899 42.8563 188.995 43.1935 189.071 43.537C189.154 43.8805 189.213 44.2325 189.264 44.576C189.318 44.9343 189.354 45.2925 189.383 45.6529C189.405 46.026 189.413 46.3927 189.422 46.7594" fill="white"/>
<path d="M163.498 65.7248H152.486L152.337 65.434C152.269 65.2991 152.203 65.1727 152.135 65.0083C152.067 64.8439 152.008 64.6795 151.948 64.5067C151.88 64.3191 151.829 64.1252 151.776 63.9313C151.717 63.7227 151.664 63.5056 151.613 63.2886C151.56 63.0483 151.515 62.8102 151.471 62.572C151.418 62.3107 151.373 62.0493 151.337 61.7796C151.292 61.4951 151.254 61.2042 151.218 60.9197C151.18 60.6057 151.144 60.3001 151.114 59.9861C151.076 59.6489 151.046 59.3138 151.025 58.9766C150.995 58.6183 150.972 58.26 150.95 57.8933C150.927 57.5119 150.906 57.1241 150.891 56.7426C150.868 56.3317 150.853 55.9291 150.838 55.5182C150.823 55.084 150.808 54.652 150.802 54.2178C150.793 53.7626 150.787 53.3053 150.778 52.85V51.3263C150.778 50.1377 150.817 48.949 150.838 47.7541C150.838 47.2314 150.853 46.7151 150.861 46.1924C150.861 45.7288 150.868 45.2735 150.876 44.8099C150.876 44.4052 150.885 44.0111 150.891 43.6065C150.891 43.263 150.899 42.9258 150.906 42.5822C150.906 42.2977 150.914 42.0153 150.914 41.7371V41.0712C150.923 40.7656 150.929 40.4579 150.929 40.1523C150.921 39.8383 150.899 39.5327 150.831 39.225C150.772 38.9636 150.683 38.7023 150.547 38.4621C150.419 38.245 150.262 38.0448 150.078 37.872C149.884 37.6991 149.653 37.5579 149.413 37.4526C149.143 37.3324 148.852 37.2502 148.561 37.1975C148.217 37.1385 147.867 37.1154 147.517 37.1154V65.6996H136.498V6.17285H150.078C150.422 6.17285 150.757 6.18128 151.093 6.20236C151.422 6.22554 151.749 6.25504 152.078 6.2993C152.399 6.33724 152.719 6.39625 153.033 6.45526C153.348 6.51427 153.654 6.59014 153.959 6.67233C154.265 6.75453 154.556 6.85147 154.855 6.95685C155.146 7.06222 155.437 7.17392 155.722 7.30037C156.006 7.4205 156.289 7.5617 156.558 7.70291C156.835 7.84411 157.104 8.0085 157.365 8.17288C157.635 8.33727 157.896 8.51641 158.143 8.70397C158.397 8.89154 158.635 9.09176 158.867 9.30251C159.09 9.51115 159.306 9.73666 159.502 9.9748C159.697 10.213 159.882 10.4595 160.054 10.723C160.226 10.9843 160.383 11.2604 160.517 11.5365C160.659 11.8273 160.786 12.1266 160.897 12.4258C161.016 12.7399 161.113 13.0602 161.196 13.389C161.285 13.7325 161.353 14.076 161.404 14.428C161.464 14.7947 161.502 15.1677 161.532 15.5407C161.561 15.937 161.576 16.3332 161.576 16.721V23.8654C161.576 24.2089 161.561 24.5609 161.538 24.9044C161.508 25.2332 161.47 25.562 161.419 25.8907C161.366 26.2048 161.3 26.5188 161.217 26.8244C161.135 27.1236 161.045 27.4145 160.933 27.7053C160.829 27.9898 160.71 28.2659 160.568 28.5357C160.434 28.797 160.283 29.0583 160.128 29.3133C159.965 29.5599 159.793 29.8065 159.606 30.0383C159.419 30.2702 159.217 30.4936 159 30.7043C158.784 30.9214 158.552 31.1237 158.315 31.3239C158.068 31.5262 157.813 31.7117 157.546 31.8845C157.27 32.0636 156.985 32.2365 156.703 32.3924C156.403 32.5568 156.098 32.7212 155.777 32.8476L154.768 33.2502L155.715 33.5558C156.015 33.6527 156.306 33.7792 156.588 33.9225C156.864 34.0489 157.134 34.1922 157.395 34.3482C157.65 34.4978 157.896 34.6622 158.134 34.8329C158.366 35.0057 158.591 35.1849 158.799 35.3851C159.007 35.579 159.209 35.7813 159.395 35.9984C159.582 36.2154 159.761 36.4388 159.918 36.6707C160.081 36.9088 160.232 37.1554 160.374 37.402C160.517 37.6633 160.644 37.9246 160.755 38.1944C160.873 38.4789 160.977 38.7634 161.069 39.0543C161.166 39.3535 161.247 39.6591 161.315 39.9731C161.389 40.2956 161.449 40.6244 161.493 40.9531C161.538 41.2967 161.576 41.6486 161.598 41.9921C161.619 42.3588 161.627 42.7234 161.636 43.0902C161.659 45.2651 161.502 47.4316 161.487 49.6066C161.487 50.1229 161.487 50.6372 161.493 51.1535C161.493 51.6467 161.502 52.1335 161.517 52.6267C161.523 53.0903 161.532 53.554 161.547 54.0239C161.561 54.4644 161.576 54.9049 161.591 55.339C161.606 55.75 161.629 56.1694 161.651 56.5803C161.672 56.9681 161.695 57.358 161.719 57.7458C161.742 58.1125 161.772 58.4708 161.801 58.8375C161.831 59.1747 161.861 59.5182 161.899 59.8533C161.929 60.1673 161.967 60.4729 162.012 60.7869C162.05 61.0715 162.086 61.3623 162.131 61.6468C162.169 61.9081 162.213 62.1695 162.264 62.4308C162.309 62.6711 162.353 62.9008 162.407 63.141C162.46 63.3497 162.511 63.5604 162.564 63.7691C162.617 63.9566 162.676 64.1421 162.736 64.3297C162.789 64.4856 162.855 64.6521 162.923 64.8081C163.175 65.4129 163.498 65.7248 163.498 65.7248ZM150.868 26.7611V16.9191C150.868 16.5987 150.846 16.2763 150.77 15.9622C150.71 15.6925 150.621 15.4248 150.494 15.1783C150.366 14.9549 150.218 14.7441 150.025 14.5734C149.838 14.3943 149.615 14.2531 149.375 14.1393C149.105 14.0128 148.823 13.9306 148.538 13.8779C148.194 13.8189 147.859 13.7873 147.508 13.7873V29.9287C147.852 29.9287 148.194 29.9056 148.538 29.8381C148.829 29.7854 149.114 29.7032 149.375 29.5768C149.613 29.4651 149.838 29.3155 150.025 29.1363C150.211 28.9572 150.375 28.7485 150.494 28.523C150.621 28.2764 150.717 28.0067 150.77 27.7306C150.838 27.4082 150.868 27.0878 150.868 26.759V26.7611Z" fill="white"/>
<path d="M124.022 37.147H133.406V29.9287H124.022V13.8547H134.421V6.17285H113.01V65.7248H134.546V58.0872H124.02V37.1491L124.022 37.147Z" fill="white"/>
<path d="M96.9691 47.7752L93.1617 6.17285H82.4254L89.1738 65.7248H104.777L111.526 6.17285H100.762L96.9691 47.7752Z" fill="white"/>
</g>
<defs>
<clipPath id="clip0_138_113">
<rect width="390" height="71" fill="white"/>
</clipPath>
</defs>
</svg>
