<svg width="307" height="56" viewBox="0 0 307 56" fill="none" xmlns="http://www.w3.org/2000/svg">
<g clip-path="url(#clip0_138_65)">
<path d="M166.789 4.86877H155.8L149.306 51.846H157.898L159.355 39.2328H163.24L164.703 51.846H173.295L166.789 4.86877ZM162.523 32.725H160.096V32.7067L161.278 18.6838L162.518 32.7067V32.725H162.523Z" fill="black"/>
<path d="M247.069 3.50073L289.38 28.0025L247.069 52.4993L245.53 51.61L286.296 28.0042L245.53 4.39171L247.069 3.50239V3.50073Z" fill="black"/>
<path d="M257.1 0.89596L258.642 0L307 28.0025L258.642 56L257.1 55.1107L303.914 28.0042L257.1 0.89596Z" fill="black"/>
<path d="M59.929 3.50073L17.6183 28.0025L59.929 52.4993L61.4685 51.61L20.7024 28.0042L61.4685 4.39171L59.929 3.50239V3.50073Z" fill="black"/>
<path d="M49.8979 0.89596L48.3517 0L0 28.0025L48.3534 56L49.8996 55.1107L3.08571 28.0025L49.8979 0.89596Z" fill="black"/>
<path d="M240.659 10.9926H235.816V51.8394H227.136V10.9926H222.288V4.86877H240.659V10.9926Z" fill="black"/>
<path d="M220.03 10.9277H212.456V23.6058H219.231V29.2991H212.456V51.8377H203.787V4.86877H220.03V10.9277Z" fill="black"/>
<path d="M201.456 4.86877H192.782V51.846H201.456V4.86877Z" fill="black"/>
<path d="M174.752 51.8394V4.86877H183.426V45.8153H191.03V51.8394" fill="black"/>
<path d="M149.112 36.8973V42.8914C149.112 43.169 149.107 43.4449 149.089 43.7225C149.077 43.9885 149.054 44.2528 149.024 44.5188C148.993 44.7714 148.965 45.0191 148.923 45.2734C148.881 45.5145 148.835 45.7505 148.776 45.9865C148.723 46.2159 148.659 46.4403 148.589 46.6647C148.519 46.8825 148.449 47.0953 148.36 47.3014C148.278 47.5075 148.189 47.7086 148.089 47.9031C147.996 48.091 147.889 48.2805 147.778 48.4633C147.666 48.6395 147.549 48.8174 147.426 48.9886C147.302 49.1531 147.166 49.3194 147.031 49.4723C146.896 49.6252 146.749 49.7732 146.596 49.9211C146.444 50.0624 146.286 50.1987 146.12 50.3284C145.95 50.458 145.779 50.5827 145.604 50.6941C145.421 50.8121 145.234 50.9235 145.04 51.0249C144.846 51.1312 144.641 51.226 144.44 51.3141C144.228 51.4088 144.011 51.4903 143.793 51.5684C143.571 51.6449 143.34 51.7164 143.106 51.7812C142.865 51.846 142.625 51.9042 142.377 51.9574C142.125 52.0106 141.866 52.0521 141.607 52.0937C141.336 52.1352 141.067 52.1652 140.796 52.1934C140.514 52.2233 140.226 52.24 139.944 52.2516C139.644 52.2632 139.35 52.2699 139.051 52.2699C138.74 52.2699 138.422 52.2699 138.105 52.2466C137.806 52.235 137.505 52.2117 137.206 52.1818C136.918 52.1519 136.636 52.117 136.353 52.0754C136.082 52.0338 135.818 51.9807 135.554 51.9275C135.302 51.8693 135.054 51.8094 134.802 51.733C134.561 51.6615 134.325 51.585 134.096 51.4969C133.872 51.4138 133.655 51.3207 133.438 51.2193C133.232 51.1196 133.027 51.0132 132.833 50.9002C132.639 50.7888 132.457 50.6708 132.274 50.5411C132.099 50.4115 131.928 50.2818 131.763 50.1339C131.604 49.9926 131.452 49.8446 131.305 49.6851C131.158 49.5321 131.022 49.3676 130.894 49.1964C130.765 49.0252 130.641 48.849 130.529 48.6661C130.417 48.4766 130.312 48.2888 130.218 48.0893C130.118 47.8882 130.03 47.682 129.948 47.4709C129.866 47.2532 129.796 47.0354 129.73 46.811C129.665 46.5816 129.607 46.3456 129.56 46.1095C129.513 45.8619 129.471 45.6142 129.443 45.3665C129.408 45.1005 129.384 44.8412 129.366 44.5769C129.349 44.2993 129.343 44.0234 129.343 43.7458V33.0358H137.187V43.804C137.187 44.04 137.211 44.2811 137.287 44.5055C137.353 44.695 137.458 44.8712 137.593 45.0058C137.734 45.1471 137.916 45.2418 138.105 45.3067C138.341 45.3831 138.581 45.4064 138.827 45.4064C139.073 45.4064 139.297 45.3831 139.521 45.3067C139.703 45.2418 139.878 45.1471 140.014 45.0058C140.149 44.8695 140.249 44.6933 140.313 44.5104C140.39 44.286 140.413 44.045 140.413 43.8156V38.252C140.413 38.0575 140.402 37.8631 140.378 37.6752C140.355 37.4741 140.32 37.2746 140.273 37.0735C140.226 36.8607 140.168 36.6546 140.097 36.4485C140.027 36.2307 139.945 36.0179 139.85 35.8068C139.756 35.5824 139.644 35.3597 139.532 35.1403C139.409 34.9042 139.28 34.6798 139.145 34.4504C138.997 34.2094 138.845 33.9734 138.687 33.744C138.516 33.4963 138.341 33.2553 138.158 33.0126C137.964 32.7533 137.764 32.5056 137.558 32.2579C137.323 31.9803 137.082 31.7044 136.841 31.4268C136.612 31.1608 136.383 30.8965 136.159 30.6305C135.947 30.3762 135.73 30.1236 135.519 29.8709C135.313 29.6299 135.113 29.3938 134.914 29.1511C134.725 28.9217 134.531 28.6973 134.344 28.4679C134.168 28.2502 133.991 28.0374 133.816 27.8197C133.652 27.6135 133.486 27.4124 133.323 27.2063C133.17 27.0184 133.017 26.824 132.865 26.6345C132.724 26.4583 132.582 26.2804 132.442 26.0975C132.313 25.933 132.183 25.7668 132.059 25.6022C131.942 25.4493 131.83 25.2963 131.713 25.1417C131.607 25.0005 131.507 24.8592 131.407 24.7179C131.313 24.5882 131.225 24.4586 131.136 24.3289C131.059 24.2175 130.977 24.0995 130.9 23.9815C130.83 23.8818 130.765 23.7754 130.7 23.669C130.576 23.4629 130.452 23.2501 130.342 23.0323C130.237 22.8196 130.13 22.6018 130.043 22.3774C129.949 22.1596 129.867 21.9352 129.796 21.7058C129.725 21.4765 129.66 21.2454 129.602 21.016C129.548 20.78 129.501 20.5439 129.466 20.3095C129.431 20.0685 129.401 19.8325 129.384 19.5898C129.366 19.3421 129.354 19.0944 129.354 18.8468V13.5707C129.354 13.2881 129.361 13.0056 129.378 12.7213C129.389 12.4504 129.413 12.1844 129.443 11.9135C129.473 11.6541 129.513 11.4015 129.555 11.1471C129.602 10.9061 129.655 10.6634 129.714 10.4224C129.772 10.193 129.842 9.96196 129.919 9.73921C129.996 9.52146 130.078 9.30869 130.172 9.09592C130.26 8.8898 130.359 8.68866 130.466 8.49418C130.571 8.30634 130.683 8.11684 130.807 7.93399C130.924 7.75779 131.059 7.57993 131.195 7.41537C131.33 7.2508 131.47 7.09123 131.624 6.9383C131.776 6.78537 131.935 6.64408 132.101 6.50278C132.264 6.36648 132.442 6.23184 132.624 6.10717C132.806 5.98416 133 5.86614 133.194 5.7531C133.393 5.64173 133.6 5.53535 133.806 5.4406C134.023 5.34086 134.24 5.25276 134.464 5.16965C134.7 5.08654 134.929 5.01007 135.17 4.94026C135.417 4.86878 135.669 4.8106 135.922 4.75242C136.186 4.69424 136.45 4.65269 136.716 4.61113C136.992 4.56957 137.274 4.53466 137.557 4.50474C137.851 4.47482 138.15 4.4582 138.444 4.43992C138.755 4.42828 139.068 4.42163 139.374 4.42163C139.679 4.42163 139.99 4.42828 140.296 4.4449C140.584 4.45654 140.878 4.47981 141.166 4.50973C141.441 4.53965 141.712 4.58121 141.988 4.6211C142.247 4.66765 142.504 4.72084 142.759 4.78068C142.999 4.83886 143.24 4.91034 143.481 4.9868C143.71 5.06326 143.934 5.14638 144.151 5.23946C144.362 5.33421 144.569 5.4273 144.774 5.54033C144.968 5.64672 145.162 5.76474 145.344 5.88775C145.527 6.01075 145.697 6.14041 145.868 6.28337C146.033 6.41967 146.19 6.56595 146.337 6.71888C146.484 6.87181 146.632 7.03138 146.76 7.2026C146.896 7.37381 147.019 7.55001 147.136 7.73286C147.253 7.9207 147.36 8.11019 147.459 8.30967C147.559 8.5108 147.653 8.72191 147.73 8.93468C147.818 9.15243 147.889 9.37684 147.954 9.60124C148.024 9.83729 148.077 10.0733 148.129 10.3144C148.183 10.567 148.223 10.8213 148.253 11.074C148.288 11.34 148.311 11.6109 148.33 11.8819C148.348 12.1645 148.348 12.4537 148.353 12.7363V20.8581H140.509V12.211C140.492 11.94 140.478 11.6691 140.361 11.4264C140.268 11.2319 140.109 11.0607 139.92 10.961C139.696 10.838 139.439 10.7964 139.186 10.8014C138.992 10.8014 138.799 10.8363 138.628 10.9078C138.464 10.9793 138.317 11.0956 138.193 11.2386C138.058 11.3982 137.958 11.586 137.883 11.7805C137.789 12.0281 137.735 12.2808 137.695 12.5401C137.642 12.8643 137.613 13.1951 137.63 13.5192L137.796 16.5661L137.831 17.1612C137.842 17.3673 137.889 17.5735 137.936 17.7746C137.99 17.9874 138.048 18.1985 138.118 18.4112C138.188 18.6356 138.277 18.8534 138.371 19.0662C138.471 19.2956 138.583 19.52 138.693 19.7444C138.817 19.9804 138.952 20.2165 139.093 20.4459C139.24 20.6935 139.399 20.9296 139.562 21.1656C139.738 21.4183 139.915 21.661 140.102 21.9086C140.301 22.168 140.509 22.4206 140.719 22.6683C140.948 22.9392 141.189 23.2052 141.425 23.4762C141.654 23.7355 141.878 23.9881 142.095 24.2541C142.307 24.5018 142.518 24.7495 142.73 24.9971C142.929 25.2332 143.13 25.4692 143.33 25.7036C143.519 25.928 143.713 26.1574 143.9 26.3818C144.076 26.5946 144.253 26.8123 144.428 27.0251C144.592 27.2262 144.758 27.4323 144.922 27.6318C145.074 27.8197 145.227 28.0141 145.386 28.2086C145.527 28.3915 145.674 28.5677 145.809 28.7505C145.938 28.9217 146.073 29.0863 146.204 29.2575C146.321 29.4171 146.439 29.575 146.556 29.7346C146.662 29.8825 146.774 30.0288 146.874 30.1817C146.968 30.318 147.068 30.4527 147.161 30.594C147.243 30.7186 147.325 30.8483 147.409 30.9713C147.479 31.0827 147.556 31.2007 147.626 31.3137C147.767 31.5498 147.897 31.7858 148.021 32.0268C148.138 32.2679 148.25 32.5156 148.35 32.7699C148.45 33.0225 148.537 33.2769 148.621 33.5428C148.698 33.8021 148.773 34.0681 148.833 34.3391C148.898 34.61 148.945 34.8876 148.985 35.1585C149.027 35.4411 149.055 35.7237 149.079 36.008C149.095 36.3022 149.102 36.5914 149.109 36.8807" fill="black"/>
<path d="M128.702 51.8394H120.034L119.917 51.61C119.863 51.5036 119.811 51.4038 119.758 51.2742C119.704 51.1445 119.657 51.0149 119.611 50.8786C119.557 50.7306 119.517 50.5777 119.475 50.4248C119.428 50.2602 119.387 50.089 119.347 49.9178C119.305 49.7283 119.27 49.5405 119.235 49.3526C119.193 49.1465 119.158 48.9404 119.129 48.7276C119.094 48.5032 119.064 48.2738 119.036 48.0494C119.006 47.8017 118.977 47.5607 118.954 47.313C118.924 47.0471 118.9 46.7828 118.884 46.5168C118.86 46.2342 118.842 45.9516 118.825 45.6624C118.807 45.3615 118.79 45.0557 118.778 44.7548C118.76 44.4306 118.748 44.1132 118.736 43.789C118.725 43.4466 118.713 43.1058 118.708 42.7634C118.701 42.4044 118.696 42.0436 118.69 41.6846V40.4828C118.69 39.5453 118.72 38.6077 118.736 37.6652C118.736 37.253 118.748 36.8457 118.755 36.4335C118.755 36.0678 118.76 35.7088 118.767 35.3431C118.767 35.0239 118.773 34.7131 118.778 34.3939C118.778 34.123 118.785 33.857 118.79 33.586C118.79 33.3616 118.797 33.1389 118.797 32.9195V32.3942C118.803 32.1532 118.808 31.9105 118.808 31.6695C118.802 31.4218 118.785 31.1807 118.731 30.9381C118.685 30.7319 118.614 30.5258 118.507 30.3363C118.407 30.1651 118.283 30.0072 118.138 29.8709C117.986 29.7346 117.804 29.6232 117.615 29.5401C117.403 29.4453 117.174 29.3805 116.945 29.339C116.674 29.2924 116.398 29.2741 116.122 29.2741V51.8194H107.448V4.86877H118.138C118.409 4.86877 118.673 4.87542 118.937 4.89205C119.196 4.91033 119.454 4.9336 119.713 4.96851C119.965 4.99843 120.217 5.04497 120.465 5.09152C120.712 5.13806 120.953 5.1979 121.194 5.26273C121.434 5.32756 121.663 5.40402 121.899 5.48714C122.128 5.57025 122.357 5.65835 122.581 5.75809C122.805 5.85283 123.027 5.96421 123.24 6.07558C123.457 6.18695 123.669 6.31661 123.875 6.44626C124.087 6.57592 124.293 6.71721 124.487 6.86515C124.687 7.01309 124.874 7.17101 125.057 7.33724C125.232 7.5018 125.403 7.67966 125.556 7.8675C125.71 8.05533 125.856 8.24982 125.991 8.4576C126.126 8.66372 126.25 8.88148 126.355 9.09924C126.467 9.32863 126.568 9.56467 126.655 9.80071C126.748 10.0484 126.825 10.3011 126.89 10.5604C126.961 10.8313 127.014 11.1023 127.054 11.3799C127.101 11.6691 127.131 11.9633 127.154 12.2575C127.178 12.57 127.19 12.8825 127.19 13.1884V18.8235C127.19 19.0944 127.178 19.372 127.159 19.643C127.136 19.9023 127.106 20.1616 127.066 20.4209C127.024 20.6686 126.972 20.9163 126.907 21.1573C126.842 21.3933 126.772 21.6227 126.683 21.8521C126.601 22.0765 126.508 22.2943 126.396 22.5071C126.29 22.7132 126.172 22.9193 126.05 23.1204C125.921 23.3149 125.785 23.5094 125.638 23.6922C125.491 23.8751 125.332 24.0513 125.162 24.2175C124.991 24.3887 124.809 24.5483 124.622 24.7062C124.428 24.8658 124.228 25.0121 124.017 25.1484C123.8 25.2897 123.576 25.426 123.353 25.549C123.118 25.6787 122.877 25.8083 122.624 25.908L121.831 26.2255L122.576 26.4666C122.812 26.543 123.041 26.6428 123.263 26.7558C123.48 26.8555 123.693 26.9686 123.898 27.0916C124.099 27.2096 124.293 27.3393 124.48 27.4739C124.662 27.6102 124.839 27.7515 125.003 27.9094C125.167 28.0623 125.326 28.2219 125.473 28.3931C125.62 28.5643 125.76 28.7405 125.884 28.9234C126.013 29.1112 126.131 29.3057 126.243 29.5002C126.355 29.7063 126.456 29.9124 126.543 30.1252C126.636 30.3496 126.718 30.574 126.79 30.8034C126.867 31.0395 126.93 31.2805 126.984 31.5282C127.042 31.7825 127.089 32.0418 127.124 32.3011C127.159 32.5721 127.19 32.8497 127.206 33.1206C127.223 33.4098 127.23 33.6974 127.236 33.9866C127.255 35.7021 127.131 37.4109 127.119 39.1264C127.119 39.5336 127.119 39.9392 127.124 40.3465C127.124 40.7354 127.131 41.1194 127.143 41.5084C127.148 41.8741 127.154 42.2398 127.166 42.6105C127.178 42.9579 127.19 43.3053 127.201 43.6477C127.213 43.9719 127.231 44.3027 127.248 44.6268C127.265 44.9327 127.283 45.2402 127.302 45.546C127.32 45.8353 127.343 46.1178 127.367 46.4071C127.39 46.673 127.414 46.944 127.444 47.2083C127.467 47.456 127.497 47.697 127.532 47.9447C127.562 48.1691 127.591 48.3985 127.626 48.6229C127.656 48.829 127.691 49.0351 127.731 49.2412C127.766 49.4307 127.801 49.6119 127.843 49.8014C127.885 49.966 127.925 50.1322 127.967 50.2968C128.009 50.4447 128.055 50.591 128.102 50.7389C128.144 50.862 128.196 50.9933 128.249 51.1163C128.448 51.5933 128.702 51.8394 128.702 51.8394ZM118.76 21.1074V13.3447C118.76 13.092 118.743 12.8377 118.683 12.59C118.636 12.3772 118.566 12.1661 118.466 11.9716C118.365 11.7954 118.248 11.6292 118.096 11.4946C117.949 11.3533 117.774 11.2419 117.585 11.1521C117.372 11.0524 117.15 10.9876 116.926 10.946C116.655 10.8995 116.391 10.8745 116.115 10.8745V23.6058C116.386 23.6058 116.655 23.5875 116.926 23.5343C117.155 23.4928 117.379 23.4279 117.585 23.3282C117.772 23.2401 117.949 23.1221 118.096 22.9808C118.243 22.8395 118.372 22.6749 118.466 22.4971C118.566 22.3026 118.641 22.0898 118.683 21.8721C118.736 21.6177 118.76 21.3651 118.76 21.1058V21.1074Z" fill="black"/>
<path d="M97.6279 29.2991H105.015V23.6058H97.6279V10.9277H105.814V4.86877H88.9591V51.8394H105.912V45.8153H97.6262V29.3007L97.6279 29.2991Z" fill="black"/>
<path d="M76.3321 37.6819L73.335 4.86877H64.8835L70.1958 51.8394H82.4785L87.7907 4.86877H79.3175L76.3321 37.6819Z" fill="black"/>
</g>
<defs>
<clipPath id="clip0_138_65">
<rect width="307" height="56" fill="white"/>
</clipPath>
</defs>
</svg>
